<svg xmlns="http://www.w3.org/2000/svg" xmlns:xlink="http://www.w3.org/1999/xlink" viewBox="0 0 1920 1080">
  <defs>
    <style>
      .cls-1 {
        clip-path: url(#clip-node-beginners-thumb);
      }

      .cls-2 {
        fill: url(#linear-gradient);
      }

      .cls-12, .cls-3, .cls-5 {
        fill: #fff;
      }

      .cls-4 {
        opacity: 0.18;
      }

      .cls-5 {
        stroke: #707070;
      }

      .cls-21, .cls-6, .cls-8 {
        fill: none;
      }

      .cls-6, .cls-8 {
        stroke: #fff;
      }

      .cls-6 {
        stroke-width: 6px;
      }

      .cls-7 {
        fill: #e20000;
      }

      .cls-8 {
        stroke-width: 43px;
      }

      .cls-10, .cls-9 {
        opacity: 0.8;
      }

      .cls-9 {
        fill: url(#linear-gradient-2);
      }

      .cls-10 {
        fill: url(#linear-gradient-3);
      }

      .cls-11, .cls-13 {
        fill: #689f63;
      }

      .cls-12, .cls-13 {
        fill-rule: evenodd;
      }

      .cls-14 {
        clip-path: url(#clip-path);
      }

      .cls-15 {
        fill: url(#linear-gradient-4);
      }

      .cls-16 {
        clip-path: url(#clip-path-2);
      }

      .cls-17 {
        fill: url(#linear-gradient-5);
      }

      .cls-18 {
        clip-path: url(#clip-path-3);
      }

      .cls-19 {
        fill: url(#linear-gradient-6);
      }

      .cls-20 {
        stroke: none;
      }

      .cls-22 {
        fill: #fcfcfc;
      }

      .cls-23 {
        filter: url(#Ellipse_2);
      }
    </style>
    <linearGradient id="linear-gradient" x1="0.018" y1="0.954" x2="1" y2="0.074" gradientUnits="objectBoundingBox">
      <stop offset="0" stop-color="#1a1f23"/>
      <stop offset="1" stop-color="#303030"/>
    </linearGradient>
    <filter id="Ellipse_2" x="1402" y="960" width="238.131" height="238.131" filterUnits="userSpaceOnUse">
      <feOffset dy="3" input="SourceAlpha"/>
      <feGaussianBlur stdDeviation="3" result="blur"/>
      <feFlood flood-color="#2cbebe" flood-opacity="0.322"/>
      <feComposite operator="in" in2="blur"/>
      <feComposite in="SourceGraphic"/>
    </filter>
    <linearGradient id="linear-gradient-2" x1="0.084" y1="0.183" x2="0.971" y2="0.913" gradientUnits="objectBoundingBox">
      <stop offset="0" stop-color="#1d1d1d"/>
      <stop offset="1" stop-color="#090505"/>
    </linearGradient>
    <linearGradient id="linear-gradient-3" x1="0.322" y1="0.935" x2="0.33" y2="0.077" gradientUnits="objectBoundingBox">
      <stop offset="0" stop-color="#333"/>
      <stop offset="1" stop-color="#090505"/>
    </linearGradient>
    <clipPath id="clip-path">
      <path id="Path_138" data-name="Path 138" d="M282.439,227.266,199.374,275.21a10.026,10.026,0,0,0-5.02,8.687v95.956a10.023,10.023,0,0,0,5.02,8.687l83.071,47.982a10.058,10.058,0,0,0,10.036,0l83.057-47.982a10.048,10.048,0,0,0,5.008-8.687V283.9a10.025,10.025,0,0,0-5.028-8.687l-83.046-47.944a10.1,10.1,0,0,0-10.055,0" transform="translate(-194.354 -225.925)"/>
    </clipPath>
    <linearGradient id="linear-gradient-4" x1="-0.847" y1="-1.034" x2="-0.838" y2="-1.034" gradientUnits="objectBoundingBox">
      <stop offset="0.3" stop-color="#3e863d"/>
      <stop offset="0.5" stop-color="#55934f"/>
      <stop offset="0.8" stop-color="#5aad45"/>
    </linearGradient>
    <clipPath id="clip-path-2">
      <path id="Path_140" data-name="Path 140" d="M195.4,385.806a10.051,10.051,0,0,0,2.957,2.595l71.255,41.158,11.869,6.822a10.068,10.068,0,0,0,5.785,1.311,10.26,10.26,0,0,0,1.972-.361l87.608-160.413a9.935,9.935,0,0,0-2.334-1.853l-54.39-31.408L291.37,227.114a10.486,10.486,0,0,0-2.6-1.045Zm0,0" transform="translate(-195.398 -226.069)"/>
    </clipPath>
    <linearGradient id="linear-gradient-5" x1="-0.742" y1="-0.932" x2="-0.737" y2="-0.932" gradientUnits="objectBoundingBox">
      <stop offset="0.57" stop-color="#3e863d"/>
      <stop offset="0.72" stop-color="#619857"/>
      <stop offset="1" stop-color="#76ac64"/>
    </linearGradient>
    <clipPath id="clip-path-3">
      <path id="Path_142" data-name="Path 142" d="M283.862,225.971a10.133,10.133,0,0,0-4.012,1.285l-82.829,47.806,89.315,162.68a9.963,9.963,0,0,0,3.569-1.23l83.065-47.982a10.066,10.066,0,0,0,4.85-6.853L286.77,226.135a10.43,10.43,0,0,0-2.031-.2c-.276,0-.552.014-.828.039" transform="translate(-197.021 -225.934)"/>
    </clipPath>
    <linearGradient id="linear-gradient-6" x1="-2.148" y1="-2.103" x2="-2.138" y2="-2.103" gradientUnits="objectBoundingBox">
      <stop offset="0.16" stop-color="#6bbf47"/>
      <stop offset="0.38" stop-color="#79b461"/>
      <stop offset="0.47" stop-color="#75ac64"/>
      <stop offset="0.7" stop-color="#659e5a"/>
      <stop offset="0.9" stop-color="#3e863d"/>
    </linearGradient>
    <clipPath id="clip-node-beginners-thumb">
      <rect width="1920" height="1080"/>
    </clipPath>
  </defs>
  <g id="node-beginners-thumb" class="cls-1">
    <rect class="cls-22" width="1920" height="1080"/>
    <rect id="Rectangle_2" data-name="Rectangle 2" class="cls-2" width="1920" height="1080"/>
    <path id="Path_207" data-name="Path 207" class="cls-3" d="M54.524-32.249H23.306V0H7.046V-78.914H58.427v13.17H23.306v20.379H54.524ZM69.91-29.864a34.779,34.779,0,0,1,3.36-15.555,24.6,24.6,0,0,1,9.675-10.569,28.225,28.225,0,0,1,14.661-3.74q11.87,0,19.376,7.263t8.374,19.729l.108,4.011q0,13.5-7.534,21.653T97.715,1.084q-12.683,0-20.243-8.13T69.91-29.159Zm15.664,1.112q0,8.359,3.144,12.783a10.37,10.37,0,0,0,9,4.424,10.394,10.394,0,0,0,8.889-4.37q3.2-4.37,3.2-13.977,0-8.2-3.2-12.7a10.4,10.4,0,0,0-9-4.505,10.225,10.225,0,0,0-8.889,4.478Q85.574-38.143,85.574-28.752Zm89.151-15.2a42.554,42.554,0,0,0-5.637-.434q-8.889,0-11.653,6.016V0H141.772V-58.644h14.8L157-51.652q4.715-8.076,13.062-8.076a16.413,16.413,0,0,1,4.878.7ZM224.25,0V-78.914h27.642q14.363,0,21.788,5.5t7.425,16.124a17.829,17.829,0,0,1-2.981,10.217,17.219,17.219,0,0,1-8.292,6.477,16.66,16.66,0,0,1,9.566,6.125,18.106,18.106,0,0,1,3.5,11.273q0,11.382-7.263,17.235T254.927,0Zm16.26-34.362v21.3h13.929q5.745,0,8.97-2.737a9.386,9.386,0,0,0,3.225-7.561q0-10.84-11.219-11Zm0-11.49h12.032q12.3-.217,12.3-9.81,0-5.366-3.116-7.723t-9.837-2.358H240.51Zm87.2,46.937q-12.9,0-21-7.913t-8.1-21.083V-29.43a35.426,35.426,0,0,1,3.415-15.8,25.059,25.059,0,0,1,9.675-10.731,27.154,27.154,0,0,1,14.281-3.767q12.032,0,18.943,7.588t6.91,21.517v6.4H314.486a14.551,14.551,0,0,0,4.58,9.214,13.844,13.844,0,0,0,9.675,3.469q9.051,0,14.146-6.558l7.7,8.618a23.514,23.514,0,0,1-9.539,7.778A31.3,31.3,0,0,1,327.71,1.084ZM325.922-47.1a9.788,9.788,0,0,0-7.561,3.158q-2.9,3.158-3.713,9.037h21.788v-1.253q-.108-5.226-2.818-8.084T325.922-47.1ZM365.1-29.755q0-13.5,6.423-21.734t17.317-8.238q9.647,0,15.013,6.612l.65-5.528h14.2V-1.951a25.064,25.064,0,0,1-3.5,13.387,22.452,22.452,0,0,1-9.837,8.672,34.582,34.582,0,0,1-14.851,2.981,32.157,32.157,0,0,1-12.574-2.574,22.317,22.317,0,0,1-9.268-6.639l6.938-9.539a18.348,18.348,0,0,0,14.2,6.558q6.233,0,9.7-3.333T402.986-1.9V-5.041a18.118,18.118,0,0,1-14.254,6.125,20.757,20.757,0,0,1-17.1-8.265Q365.1-15.447,365.1-29.1Zm15.664,1.166q0,7.98,3.2,12.512a10.172,10.172,0,0,0,8.78,4.532q7.154,0,10.244-5.374v-24.7q-3.144-5.374-10.135-5.374a10.237,10.237,0,0,0-8.862,4.614Q380.765-37.762,380.765-28.589ZM453.927,0H438.209V-58.644h15.718ZM437.288-73.819a7.713,7.713,0,0,1,2.358-5.8,8.857,8.857,0,0,1,6.423-2.276,8.877,8.877,0,0,1,6.4,2.276,7.669,7.669,0,0,1,2.385,5.8,7.69,7.69,0,0,1-2.412,5.854,8.9,8.9,0,0,1-6.368,2.276,8.9,8.9,0,0,1-6.368-2.276A7.69,7.69,0,0,1,437.288-73.819ZM487.9-58.644l.488,6.775q6.287-7.859,16.856-7.859,9.322,0,13.875,5.474t4.661,16.368V0H508.12V-37.506q0-4.986-2.168-7.236t-7.208-2.249a10.776,10.776,0,0,0-9.918,5.637V0H473.161V-58.644Zm68.827,0,.488,6.775q6.287-7.859,16.856-7.859,9.322,0,13.875,5.474t4.661,16.368V0H576.946V-37.506q0-4.986-2.168-7.236t-7.208-2.249a10.776,10.776,0,0,0-9.918,5.637V0H541.988V-58.644Zm81.4,59.728q-12.9,0-21-7.913t-8.1-21.083V-29.43a35.426,35.426,0,0,1,3.415-15.8,25.059,25.059,0,0,1,9.675-10.731A27.154,27.154,0,0,1,636.4-59.728q12.032,0,18.943,7.588t6.91,21.517v6.4H624.906a14.551,14.551,0,0,0,4.58,9.214,13.844,13.844,0,0,0,9.675,3.469q9.051,0,14.146-6.558L661-9.485a23.514,23.514,0,0,1-9.539,7.778A31.3,31.3,0,0,1,638.131,1.084ZM636.342-47.1a9.788,9.788,0,0,0-7.561,3.158q-2.9,3.158-3.713,9.037h21.788v-1.253q-.108-5.226-2.818-8.084T636.342-47.1Zm74.409,3.144a42.554,42.554,0,0,0-5.637-.434q-8.889,0-11.653,6.016V0H677.8V-58.644h14.8l.434,6.992q4.715-8.076,13.062-8.076a16.413,16.413,0,0,1,4.878.7Zm45.954,27.75a5.047,5.047,0,0,0-2.845-4.526,32.322,32.322,0,0,0-9.133-2.954q-20.921-4.39-20.921-17.777A16.114,16.114,0,0,1,730.284-54.5q6.477-5.23,16.937-5.23,11.165,0,17.859,5.257a16.569,16.569,0,0,1,6.694,13.658H756.11a7.579,7.579,0,0,0-2.168-5.555q-2.168-2.2-6.775-2.2a9.375,9.375,0,0,0-6.125,1.789,5.646,5.646,0,0,0-2.168,4.553,4.826,4.826,0,0,0,2.466,4.2q2.466,1.6,8.32,2.764a67.954,67.954,0,0,1,9.864,2.629q12.412,4.553,12.412,15.772,0,8.021-6.883,12.981T747.275,1.084a31.013,31.013,0,0,1-13.089-2.629,21.961,21.961,0,0,1-8.97-7.208,16.749,16.749,0,0,1-3.252-9.891h14.851a8.177,8.177,0,0,0,3.089,6.4,12.254,12.254,0,0,0,7.7,2.222q4.5,0,6.8-1.707A5.312,5.312,0,0,0,756.706-16.206Z" transform="translate(139 697)"/>
    <g id="Group_92" data-name="Group 92" class="cls-4" transform="translate(228 -347)">
      <g id="Ellipse_12" data-name="Ellipse 12" class="cls-5" transform="translate(1154.902 1288.665)">
        <circle class="cls-20" cx="137.014" cy="137.014" r="137.014"/>
        <circle class="cls-21" cx="137.014" cy="137.014" r="136.514"/>
      </g>
      <g id="Ellipse_13" data-name="Ellipse 13" class="cls-5" transform="translate(2465.002 802.189)">
        <circle class="cls-20" cx="137.014" cy="137.014" r="137.014"/>
        <circle class="cls-21" cx="137.014" cy="137.014" r="136.514"/>
      </g>
      <g id="Ellipse_14" data-name="Ellipse 14" class="cls-5" transform="translate(1017.888 54)">
        <circle class="cls-20" cx="137.014" cy="137.014" r="137.014"/>
        <circle class="cls-21" cx="137.014" cy="137.014" r="136.514"/>
      </g>
      <g id="Ellipse_15" data-name="Ellipse 15" class="cls-5" transform="translate(-89 275.686)">
        <circle class="cls-20" cx="137.014" cy="137.014" r="137.014"/>
        <circle class="cls-21" cx="137.014" cy="137.014" r="136.514"/>
      </g>
      <g id="Ellipse_16" data-name="Ellipse 16" class="cls-5" transform="translate(1856.907 191.014)">
        <circle class="cls-20" cx="42.336" cy="42.336" r="42.336"/>
        <circle class="cls-21" cx="42.336" cy="42.336" r="41.836"/>
      </g>
      <g id="Ellipse_17" data-name="Ellipse 17" class="cls-5" transform="translate(1941.578 1425.679)">
        <circle class="cls-20" cx="42.336" cy="42.336" r="42.336"/>
        <circle class="cls-21" cx="42.336" cy="42.336" r="41.836"/>
      </g>
      <g id="Ellipse_18" data-name="Ellipse 18" class="cls-5" transform="translate(100.356 1425.679)">
        <circle class="cls-20" cx="42.336" cy="42.336" r="42.336"/>
        <circle class="cls-21" cx="42.336" cy="42.336" r="41.836"/>
      </g>
      <g id="Ellipse_19" data-name="Ellipse 19" class="cls-5" transform="translate(448.28 1203.994)">
        <circle class="cls-20" cx="42.336" cy="42.336" r="42.336"/>
        <circle class="cls-21" cx="42.336" cy="42.336" r="41.836"/>
      </g>
      <g id="Ellipse_21" data-name="Ellipse 21" class="cls-5" transform="translate(2602.016 328.028)">
        <circle class="cls-20" cx="42.336" cy="42.336" r="42.336"/>
        <circle class="cls-21" cx="42.336" cy="42.336" r="41.836"/>
      </g>
      <g id="Ellipse_22" data-name="Ellipse 22" class="cls-5" transform="translate(2962.256 1341.008)">
        <circle class="cls-20" cx="42.336" cy="42.336" r="42.336"/>
        <circle class="cls-21" cx="42.336" cy="42.336" r="41.836"/>
      </g>
      <line id="Line_5" data-name="Line 5" class="cls-6" x2="1190.02" y2="1025.296" transform="translate(102.666 401.153)"/>
      <line id="Line_6" data-name="Line 6" class="cls-6" y1="209.37" x2="1053.006" transform="translate(102.666 191.784)"/>
      <line id="Line_7" data-name="Line 7" class="cls-6" x2="2541.687" y2="538.819" transform="translate(102.666 401.153)"/>
      <line id="Line_8" data-name="Line 8" class="cls-6" x1="360.239" y1="443.371" transform="translate(2644.352 939.972)"/>
      <line id="Line_9" data-name="Line 9" class="cls-6" y1="554.214" x2="618.872" transform="translate(1983.914 913.801)"/>
      <line id="Line_10" data-name="Line 10" class="cls-6" x1="41.566" y2="541.898" transform="translate(2602.786 371.903)"/>
      <line id="Line_11" data-name="Line 11" class="cls-6" x2="703.544" y2="680.452" transform="translate(1899.242 233.35)"/>
      <line id="Line_12" data-name="Line 12" class="cls-6" x1="743.57" y1="41.566" transform="translate(1155.672 191.784)"/>
      <line id="Line_15" data-name="Line 15" class="cls-6" x2="802.071" y2="180.12" transform="translate(490.615 1246.33)"/>
      <line id="Line_16" data-name="Line 16" class="cls-6" y1="41.566" x2="1149.994" transform="translate(142.692 1426.449)"/>
      <line id="Line_17" data-name="Line 17" class="cls-6" y1="21.553" x2="35.408" transform="translate(1257.278 1426.449)"/>
    </g>
    <g id="Symbol_4_36" data-name="Symbol 4 – 36" transform="translate(-29 58)">
      <path id="Path_6" data-name="Path 6" class="cls-3" d="M78.186,41.339c-10.492,0-20.992-4.63-28.983-13.882C39.3,16,23.222,16,13.348,27.458a7.078,7.078,0,0,1-11.055,0,10.1,10.1,0,0,1,0-12.813c15.973-18.5,41.977-18.521,57.966,0,9.89,11.453,25.973,11.444,35.855,0a7.078,7.078,0,0,1,11.055,0,10.1,10.1,0,0,1,0,12.813C99.186,36.709,88.686,41.339,78.186,41.339Z" transform="translate(1062 729.239)"/>
      <path id="Path_9" data-name="Path 9" class="cls-3" d="M78.186,41.339c-10.492,0-20.992-4.63-28.983-13.882C39.3,16,23.222,16,13.348,27.458a7.078,7.078,0,0,1-11.055,0,10.1,10.1,0,0,1,0-12.813c15.973-18.5,41.977-18.521,57.966,0,9.89,11.453,25.973,11.444,35.855,0a7.078,7.078,0,0,1,11.055,0,10.1,10.1,0,0,1,0,12.813C99.186,36.709,88.686,41.339,78.186,41.339Z" transform="translate(1250.399 729.239)"/>
      <path id="Path_7" data-name="Path 7" class="cls-3" d="M78.186,41.339c-10.492,0-20.992-4.63-28.983-13.882C39.3,16,23.222,16,13.348,27.458a7.078,7.078,0,0,1-11.055,0,10.1,10.1,0,0,1,0-12.813c15.973-18.5,41.977-18.521,57.966,0,9.89,11.453,25.973,11.444,35.855,0a7.078,7.078,0,0,1,11.055,0,10.1,10.1,0,0,1,0,12.813C99.186,36.709,88.686,41.339,78.186,41.339Z" transform="translate(1156.2 729.239)"/>
      <path id="Path_8" data-name="Path 8" class="cls-3" d="M78.186,41.339c-10.492,0-20.992-4.63-28.983-13.882C39.3,16,23.222,16,13.348,27.458a7.078,7.078,0,0,1-11.055,0,10.1,10.1,0,0,1,0-12.813c15.973-18.5,41.977-18.521,57.966,0,9.89,11.453,25.973,11.444,35.855,0a7.078,7.078,0,0,1,11.055,0,10.1,10.1,0,0,1,0,12.813C99.186,36.709,88.686,41.339,78.186,41.339Z" transform="translate(1344.599 729.239)"/>
    </g>
    <g id="Group_5" data-name="Group 5" transform="translate(-4753 638)">
      <g class="cls-23" transform="matrix(1, 0, 0, 1, 4753, -638)">
        <circle id="Ellipse_2-2" data-name="Ellipse 2" cx="110.065" cy="110.065" r="110.065" transform="translate(1411 966)"/>
      </g>
      <g id="Group_4" data-name="Group 4" transform="translate(6199.756 367.306)">
        <path id="Path_13" data-name="Path 13" class="cls-7" d="M3318.973-1123.4s-32.328,12.442-31.777,38.767,6.183,6.08,6.183,6.08,8.749-27.443,28.8-25.782c.185-.089-2.881-3.674-3.683-8.441A33.281,33.281,0,0,1,3318.973-1123.4Z" transform="translate(-3167.562 1123.401)"/>
        <path id="Path_16" data-name="Path 16" class="cls-7" d="M33.807,51.688S-.466,34.027,0,11.543,5.285,6.35,5.285,6.35s7.472,23.439,24.6,22.02c.158.076-3.486,4.007-2.506,9.837S33.807,51.688,33.807,51.688Z" transform="translate(117.255 46.515) rotate(-60)"/>
        <ellipse id="Ellipse_3" data-name="Ellipse 3" class="cls-3" cx="4.233" cy="5.094" rx="4.233" ry="5.094" transform="translate(36.945 64.075)"/>
        <ellipse id="Ellipse_4" data-name="Ellipse 4" class="cls-3" cx="4.233" cy="5.094" rx="4.233" ry="5.094" transform="translate(95.349 64.075)"/>
        <path id="Path_12" data-name="Path 12" class="cls-3" d="M2448.538-949.014h14.237s11.053-29.157,56.387-29.157,57.563,29.157,57.563,29.157h11.181s-10.568-57.233-68.744-57.656S2448.538-949.014,2448.538-949.014Z" transform="translate(-2448.538 1023.853)"/>
      </g>
    </g>
    <g id="Ellipse_1" data-name="Ellipse 1" class="cls-8" transform="translate(167 -39)">
      <circle class="cls-20" cx="109" cy="109" r="109"/>
      <circle class="cls-21" cx="109" cy="109" r="87.5"/>
    </g>
    <path id="Path_48" data-name="Path 48" class="cls-9" d="M654.381,5.31S842.568,82.367,844.707,257.14s212.793,210.8,508.708,77.611,402.692,244.443,572.918,198.673,241.931-129.041,372.629-198.673C2543.065,249,2801.493,629.5,2547.317,936.822c-398.937,415.648-636.53,86.039-1056.789,336.943s-950.113,6.8-950.113,6.8V-6.924l6.943-23.555h64.574Z" transform="matrix(-0.999, -0.035, 0.035, -0.999, 3939.021, 993.975)"/>
    <path id="Path_49" data-name="Path 49" class="cls-10" d="M654.381,5.31S842.568,82.367,844.707,257.14s212.793,210.8,508.708,77.611,402.692,244.443,572.918,198.673,241.931-129.041,372.629-198.673C2543.065,249,2801.493,629.5,2547.317,936.822c-398.937,415.648-636.53,86.039-1056.789,336.943s-950.113,6.8-950.113,6.8V-6.924l6.943-23.555h64.574Z" transform="matrix(0.891, 0.454, -0.454, 0.891, -689.809, -82.635)"/>
    <g id="node-logo" transform="translate(139 231)">
      <path id="Path_133" data-name="Path 133" class="cls-11" d="M265.649,376.862a16.579,16.579,0,0,1-8.261-2.208l-26.3-15.568c-3.928-2.2-2.011-2.973-.716-3.421a53.089,53.089,0,0,0,11.889-5.422,2,2,0,0,1,1.958.138l20.2,11.988a2.665,2.665,0,0,0,2.441,0L345.633,316.9a2.484,2.484,0,0,0,1.2-2.129V223.88a2.529,2.529,0,0,0-1.218-2.169l-78.736-45.427a2.422,2.422,0,0,0-2.425,0l-78.72,45.427a2.51,2.51,0,0,0-1.248,2.149v90.893a2.427,2.427,0,0,0,1.222,2.11l21.57,12.461c11.712,5.856,18.869-1.045,18.869-7.985v-89.71a2.247,2.247,0,0,1,2.287-2.267h9.977a2.255,2.255,0,0,1,2.267,2.267v89.749c0,15.615-8.518,24.586-23.325,24.586-4.555,0-8.143,0-18.159-4.929l-20.663-11.909a16.655,16.655,0,0,1-8.261-14.373V223.86a16.551,16.551,0,0,1,8.261-14.354l78.846-45.486a17.272,17.272,0,0,1,16.562,0l78.747,45.506a16.617,16.617,0,0,1,8.261,14.354v90.893a16.665,16.665,0,0,1-8.261,14.354l-78.747,45.486a16.555,16.555,0,0,1-8.3,2.208" transform="translate(741.164 -41.821)"/>
      <path id="Path_134" data-name="Path 134" class="cls-11" d="M251.532,293.579c-34.464,0-41.69-15.82-41.69-29.09a2.266,2.266,0,0,1,2.281-2.267H222.3a2.278,2.278,0,0,1,2.248,1.928c1.538,10.367,6.112,15.6,26.952,15.6,16.6,0,23.66-3.75,23.66-12.553,0-5.067-2.011-8.833-27.8-11.357-21.57-2.129-34.9-6.881-34.9-24.133,0-15.891,13.407-25.355,35.864-25.355,25.217,0,37.717,8.754,39.295,27.564a2.3,2.3,0,0,1-.611,1.755,2.345,2.345,0,0,1-1.676.729H275.1a2.26,2.26,0,0,1-2.208-1.774c-2.465-10.9-8.419-14.393-24.606-14.393-18.119,0-20.229,6.309-20.229,11.041,0,5.737,2.484,7.413,26.933,10.647,24.212,3.214,35.706,7.749,35.706,24.764,0,17.153-14.314,26.992-39.275,26.992" transform="translate(783.554 -13.283)"/>
      <path id="Path_135" data-name="Path 135" class="cls-12" d="M187.18,178.532a10.085,10.085,0,0,0-5.043-8.764L98.625,121.719a9.752,9.752,0,0,0-4.59-1.321h-.864a9.922,9.922,0,0,0-4.614,1.321L5.051,169.768A10.162,10.162,0,0,0,0,178.542L.183,307.96a4.968,4.968,0,0,0,2.5,4.357,4.772,4.772,0,0,0,5.008,0l49.646-28.431a10.182,10.182,0,0,0,5.047-8.754v-60.46a10.056,10.056,0,0,1,5.038-8.734l21.136-12.173a10.027,10.027,0,0,1,5.047-1.357,9.85,9.85,0,0,1,5.016,1.355l21.126,12.169a10.061,10.061,0,0,1,5.047,8.734v60.456a10.216,10.216,0,0,0,5.057,8.754l49.614,28.411a4.93,4.93,0,0,0,5.047,0,5.064,5.064,0,0,0,2.5-4.357Zm394.068,67.383a2.506,2.506,0,0,1-1.262,2.181L551.3,264.63a2.529,2.529,0,0,1-2.518,0L520.1,248.1a2.5,2.5,0,0,1-1.262-2.181V212.8a2.537,2.537,0,0,1,1.242-2.189l28.668-16.562a2.548,2.548,0,0,1,2.543,0l28.687,16.562a2.514,2.514,0,0,1,1.262,2.189ZM589,.639a5.043,5.043,0,0,0-7.5,4.411V133.206a3.527,3.527,0,0,1-5.292,3.056l-20.919-12.049a10.071,10.071,0,0,0-10.079,0l-83.539,48.213a10.066,10.066,0,0,0-5.047,8.715v96.453a10.1,10.1,0,0,0,5.047,8.734L545.2,334.574a10.128,10.128,0,0,0,10.089,0l83.538-48.266a10.11,10.11,0,0,0,5.047-8.734V37.191a10.11,10.11,0,0,0-5.185-8.813ZM867.182,211.928a10.088,10.088,0,0,0,5.014-8.719V179.833a10.092,10.092,0,0,0-5.022-8.725l-83.006-48.187a10.08,10.08,0,0,0-10.115,0l-83.519,48.207a10.069,10.069,0,0,0-5.047,8.734v96.413a10.121,10.121,0,0,0,5.087,8.774l82.986,47.3a10.061,10.061,0,0,0,9.9.059l50.2-27.9a5.036,5.036,0,0,0,.039-8.774L749.664,247.51a5,5,0,0,1-2.543-4.357V212.908a5.005,5.005,0,0,1,2.524-4.369l26.144-15.083a4.985,4.985,0,0,1,5.028,0l26.164,15.083A5.027,5.027,0,0,1,809.5,212.9v23.778a5.03,5.03,0,0,0,7.571,4.357Zm0,0" transform="translate(0 0)"/>
      <path id="Path_136" data-name="Path 136" class="cls-13" d="M402.918,105.329a1.914,1.914,0,0,1,1.932,0l16.029,9.247a1.936,1.936,0,0,1,.966,1.676v18.514a1.936,1.936,0,0,1-.966,1.676l-16.029,9.247a1.914,1.914,0,0,1-1.932,0l-16.02-9.247a1.93,1.93,0,0,1-.986-1.676V116.252a1.911,1.911,0,0,1,.966-1.676Zm0,0" transform="translate(374.969 102.088)"/>
      <g id="Group_89" data-name="Group 89" class="cls-14" transform="translate(228.805 122.062)">
        <path id="Path_137" data-name="Path 137" class="cls-15" d="M505.855,303.333,271.792,188.6,151.778,433.43,385.836,548.165Zm0,0" transform="translate(-235.723 -262.189)"/>
      </g>
      <g id="Group_90" data-name="Group 90" class="cls-16" transform="translate(230.864 122.346)">
        <path id="Path_139" data-name="Path 139" class="cls-17" d="M144.07,343.584,309.343,567.273,527.919,405.784,362.636,182.1Zm0,0" transform="translate(-245.27 -268.79)"/>
      </g>
      <g id="Group_91" data-name="Group 91" class="cls-18" transform="translate(234.064 122.08)">
        <path id="Path_141" data-name="Path 141" class="cls-19" d="M197.02,225.934V437.748H377.786V225.934Zm0,0" transform="translate(-197.022 -225.934)"/>
      </g>
    </g>
  </g>
</svg>
